<svg xmlns="http://www.w3.org/2000/svg" xmlns:svg="http://www.w3.org/2000/svg" id="svg2" width="86" height="86" x="0" y="0" enable-background="new 0 0 86 86" version="1.1" viewBox="0 0 86 86" xml:space="preserve"><metadata id="metadata25"/><g id="Layer_1"><linearGradient id="SVGID_1_" x1="79.238" x2="6.762" y1="91.328" y2="18.851" gradientUnits="userSpaceOnUse"><stop style="stop-color:#f5d9a8;stop-opacity:1" id="stop7" offset="0"/><stop style="stop-color:#c93;stop-opacity:1" id="stop9" offset=".995"/></linearGradient><path id="path11" fill="url(#SVGID_1_)" d="M43,0.3C19.417,0.3,0.3,19.418,0.3,43c0,0.408,0,41.277,0,41.277c0,0.786,0.637,1.423,1.423,1.423 h82.553c0.786,0,1.423-0.637,1.423-1.423c0,0,0-40.908,0-41.277C85.7,19.418,66.583,0.3,43,0.3z"/></g><path id="path4" d="m 65.244239,25.145325 2.755924,0 0,52.854675 -39.567187,0 C 22.625852,78 17.999837,73.964541 17.999837,67.960564 l 0,-45.768014 c 0,-3.248053 2.657498,-5.90555 5.905551,-5.90555 l 36.614411,0 0,45.374311 -32.086823,0 c -4.035459,0 -6.889809,2.165368 -6.889809,6.102402 l 0,0.196851 c 0,3.937034 2.85435,6.496106 6.889809,6.496106 l 36.811263,0 0,-49.311345 z m -4.72444,44.193201 -31.69312,0 c -0.885832,0 -1.673239,-0.492128 -1.673239,-1.476387 0,-0.787407 0.787407,-1.279537 1.673239,-1.279537 l 31.69312,0 0,2.755924 z" style="fill:#c00;fill-opacity:1"/></svg>