<svg xmlns="http://www.w3.org/2000/svg" xmlns:svg="http://www.w3.org/2000/svg" id="Layer_1" width="100" height="100" x="0" y="0" version="1.1" viewBox="0 0 100 100" xml:space="preserve"><metadata id="metadata3074"/><g id="graphic-close-app" transform="translate(0,-8)"><path style="fill:#fff;stroke:none" id="circle3060" d="M 50,0 C 22.385763,0 0,22.385763 0,50 0,77.614238 22.385763,100 50,100 77.614237,100 100,77.614238 100,50 100,22.385763 77.614237,0 50,0 z M 28.84375,23.90625 44.6875,39.75 c 5.653,5.653 5.652,14.847 0,20.5 L 28.84375,76.09375 c -1.56467,1.257409 -3.594505,1.303267 -4.9375,0 -1.367,-1.367 -1.367,-3.5715 0,-4.9375 L 39.75,55.3125 c 2.924,-2.925 2.924,-7.701 0,-10.625 L 23.90625,28.84375 c -1.367,-1.367 -1.367,-3.5705 0,-4.9375 1.565153,-1.257526 3.594022,-1.302845 4.9375,0 z m 47.25,0 c 1.367,1.367 1.367,3.5705 0,4.9375 L 62.375,42.5625 c -4.094,4.094 -4.095,10.779 0,14.875 l 13.71875,13.71875 c 1.366,1.367 1.367,3.5705 0,4.9375 -1.566108,1.257128 -3.593266,1.302721 -4.9375,0 L 57.4375,62.375 c -6.822,-6.825 -6.823,-17.927 0,-24.75 L 71.15625,23.90625 c 1.564445,-1.258008 3.595058,-1.302741 4.9375,0 z" transform="translate(0,8)"/></g></svg>