<svg xmlns="http://www.w3.org/2000/svg" xmlns:svg="http://www.w3.org/2000/svg" xmlns:xlink="http://www.w3.org/1999/xlink" id="svg2" width="86" height="86" x="0" y="0" enable-background="new 0 0 86 86" version="1.1" viewBox="0 0 86 86" xml:space="preserve"><defs id="defs12"><linearGradient id="linearGradient3843" x1="79.238" x2="6.762" y1="91.328" y2="18.851" gradientUnits="userSpaceOnUse"><stop id="stop3845" offset="0" style="stop-color:#f5d9a8;stop-opacity:1"/><stop id="stop3847" offset="1" style="stop-color:#c93;stop-opacity:1"/></linearGradient><linearGradient id="linearGradient3833" x1="26.594" x2="3.618" y1="24.501" y2="4.414" gradientUnits="userSpaceOnUse" xlink:href="#linearGradient3843"/></defs><metadata id="metadata25"/><path style="fill:url(#linearGradient3833);fill-opacity:1;fill-rule:evenodd;stroke:#fff;stroke-width:0;stroke-linecap:butt;stroke-linejoin:miter;stroke-miterlimit:4;stroke-opacity:1;stroke-dasharray:none" id="path3825" d="m 24,13.1875 a 10.5,9.8125 0 1 1 -21,0 10.5,9.8125 0 1 1 21,0 z" transform="matrix(4.0952381,0,0,4.3821656,-12.285714,-14.789809)"/><path id="path4" d="m 63.019685,23.201772 2.480315,0 0,47.568897 -35.610236,0 C 24.663386,70.770669 20.5,67.13878 20.5,61.735235 l 0,-41.190944 c 0,-2.923228 2.391733,-5.31496 5.314961,-5.31496 l 32.952755,0 0,40.836614 -28.877952,0 c -3.63189,0 -6.200788,1.948818 -6.200788,5.492126 l 0,0.177164 c 0,3.543308 2.568898,5.846458 6.200788,5.846458 l 33.129921,0 0,-44.379921 z m -4.251969,39.773621 -28.523622,0 c -0.797243,0 -1.505905,-0.442912 -1.505905,-1.328739 0,-0.708662 0.708662,-1.151576 1.505905,-1.151576 l 28.523622,0 0,2.480315 z" style="fill:#c00;fill-opacity:1;stroke-width:0;stroke-miterlimit:4;stroke-dasharray:none"/><path style="opacity:0;fill:#000;fill-opacity:1;stroke:#fff;stroke-width:4;stroke-linecap:square;stroke-miterlimit:3;stroke-opacity:1;stroke-dasharray:none" id="path2999" d="m 85.088985,44.275425 a 42.088985,51.745762 0 1 1 -84.17797044,0 42.088985,51.745762 0 1 1 84.17797044,0 z"/><path style="opacity:0;fill:none;fill-opacity:1;stroke:#fff;stroke-width:4;stroke-linecap:square;stroke-miterlimit:3;stroke-opacity:1;stroke-dasharray:none" id="path3769" d="M 34.983051,17.491526 A 12.298729,12.207627 0 1 1 22.792077,5.2843669 L 22.684322,17.491526 z"/><path style="opacity:0;fill:#000;fill-opacity:1;stroke:#fff;stroke-width:4;stroke-linecap:square;stroke-miterlimit:3;stroke-opacity:1;stroke-dasharray:none" id="path3799" d="M 83.07618,5 A 80.07618,1.096934 0 1 1 3.70158,3.9031081 L 3,5 z"/><path style="opacity:0;fill:#000;fill-opacity:1;stroke:#fff;stroke-width:4;stroke-linecap:square;stroke-miterlimit:3;stroke-opacity:1;stroke-dasharray:none" id="path3801" d="m 103.5,18.5 a 18.75,18.75 0 1 1 -37.5,0 18.75,18.75 0 1 1 37.5,0 z"/></svg>