<svg xmlns="http://www.w3.org/2000/svg" xmlns:svg="http://www.w3.org/2000/svg" width="100%" height="100%" version="1.1" viewBox="0 -256 100 86"><metadata id="metadata12"/><path id="path6-5" d="m 97.499974,-225.88637 0,40.5 c 0,3.5284 -1.256001,6.55821 -3.768025,9.08947 -2.512015,2.53124 -5.518827,3.79687 -9.020429,3.79687 l -69.423042,0 c -3.501602,0 -6.5084135,-1.26563 -9.0204269,-3.79687 -2.5120233,-2.53126 -3.7680251,-5.56107 -3.7680251,-9.08947 l 0,-55.22725 c 0,-3.5284 1.2560018,-6.55821 3.7680251,-9.08948 2.5120134,-2.53123 5.5188249,-3.79687 9.0204269,-3.79687 l 18.269222,0 c 3.501603,0 6.508405,1.26564 9.020427,3.79687 2.512013,2.53127 3.768025,5.56108 3.768025,9.08948 l 0,1.84091 38.365368,0 c 3.501602,0 6.508414,1.26564 9.020429,3.79688 2.512024,2.53127 3.768025,5.56108 3.768025,9.08946 z" style="fill:#422511;fill-opacity:1;stroke:#784421;stroke-width:5;stroke-miterlimit:4;stroke-opacity:1;stroke-dasharray:none"/></svg>