<svg xmlns="http://www.w3.org/2000/svg" xmlns:svg="http://www.w3.org/2000/svg" id="svg4459" width="100" height="64" version="1.1"><metadata id="metadata4464"/><g id="layer1" transform="translate(-14,-946.02223)"><g style="fill:gray;fill-opacity:1;stroke:none" id="text4477" transform="matrix(1.6163793,0,0,1.5182163,-0.62931024,-534.45853)"><path id="path5549" d="m 14,994.18217 7.12,0 0,-7.84 4.32,0 0,7.84 7.12,0 0,4.08 -7.12,0 0,7.84003 -4.32,0 0,-7.84003 -7.12,0 0,-4.08"/></g><g style="fill:gray;fill-opacity:1;stroke:none" id="text5562" transform="matrix(1.7406963,0,0,1.7391304,12.768306,943.23962)"><path id="path5570" d="m 53.56,33.8 -11.16,0 0,-1.8 c 1.013315,-0.05333 1.719981,-0.159998 2.12,-0.32 0.39998,-0.159998 0.59998,-0.439997 0.6,-0.84 -2e-5,-0.346663 -0.28002,-1.199996 -0.84,-2.56 L 43,25.12 l -9.76,0 c -0.106675,0.320008 -0.360008,0.920008 -0.76,1.8 -0.400007,0.853339 -0.720007,1.626672 -0.96,2.32 -0.240006,0.666671 -0.360006,1.200003 -0.36,1.6 -6e-6,0.480002 0.22666,0.800002 0.68,0.96 0.479993,0.133335 1.173325,0.200002 2.08,0.2 l 0,1.8 -8.92,0 0,-1.72 c 0.293333,-0.02667 0.573333,-0.08 0.84,-0.16 0.266666,-0.08 0.519999,-0.199998 0.76,-0.36 0.239998,-0.186664 0.453331,-0.346664 0.64,-0.48 0.186664,-0.159997 0.373331,-0.399997 0.56,-0.72 0.21333,-0.319996 0.37333,-0.573329 0.48,-0.76 0.13333,-0.186662 0.306663,-0.493329 0.52,-0.92 0.213329,-0.453328 0.359996,-0.786661 0.44,-1 0.106662,-0.213327 0.266662,-0.58666 0.48,-1.12 0.239995,-0.559992 0.413328,-0.946658 0.52,-1.16 l 8.04,-19.2 1.76,0 9.68,22.24 c 0.639975,1.493337 1.119974,2.400003 1.44,2.72 0.533307,0.560002 1.333306,0.840002 2.4,0.84 l 0,1.8 m -11.52,-11.24 -3.96,-9.28 -3.8,9.28 7.76,0" style="fill:gray;fill-opacity:1"/></g></g></svg>