<svg xmlns="http://www.w3.org/2000/svg" xmlns:svg="http://www.w3.org/2000/svg" id="svg2" width="64" height="64" version="1.1"><metadata id="metadata7"/><g id="layer1" transform="translate(0,-988.36215)"><path style="opacity:0;fill:#000;fill-opacity:.50196078;stroke:gray;stroke-width:10;stroke-linecap:square;stroke-miterlimit:4;stroke-opacity:1;stroke-dasharray:none" id="path3778" d="m 70,52.5 a 27.5,27.5 0 1 1 -55,0 27.5,27.5 0 1 1 55,0 z" transform="matrix(0.48,0,0,0.48,9.180329,978.36216)"/><path style="opacity:0;fill:#000;fill-opacity:.50196078;stroke:#000;stroke-width:10;stroke-linecap:square;stroke-miterlimit:4;stroke-opacity:1;stroke-dasharray:none" id="path3790" d="M 80,50 C 80,69.329966 65.449254,85 47.5,85 29.550746,85 15,69.329966 15,50 15,30.670034 29.550746,15 47.5,15 65.449254,15 80,30.670034 80,50 z" transform="matrix(0.48,0,0,0.48,21.180329,978.36216)"/><g id="g8" transform="matrix(0.33942251,-0.33942251,0.33942251,0.33942251,-0.9,1024.6049)"><rect id="rect3794" width="48" height="48" x="0" y="0" style="fill:none"/><path id="path3800" d="m 54.714286,-7.78571 c -27.611111,0 -50.0000003,22.388889 -50.0000003,50 0,27.611111 22.3888893,50 50.0000003,50 27.611111,0 50.000004,-22.388889 50.000004,-50 0,-27.611111 -22.388893,-50 -50.000004,-50 z m 9.781481,83.492593 c -2.925925,0.8 -5.996296,1.229629 -9.174074,1.229629 -19.177777,0 -34.388888,-15.540741 -34.388888,-34.722222 0,-19.174074 15.211111,-34.722222 34.388888,-34.722222 3.174074,0 6.248149,0.433333 9.174074,1.237037 -14.729629,4.018518 -25.04074,17.485185 -25.04074,33.485185 0,16 10.311111,29.462963 25.04074,33.492593 z" style="fill:#000;fill-opacity:1"/></g></g></svg>